<svg xmlns="http://www.w3.org/2000/svg" xmlns:xlink="http://www.w3.org/1999/xlink" fill="none" viewBox="0 0 248 248" aria-hidden="true" style="touch-action: none;">
  <path fill="url(#paint0_radial_1629_34053)" fill-rule="evenodd" d="M62 124c-34.242 0-62 27.759-62 62 0 34.242 27.759 62 62 62 34.242 0 62-27.758 62-62 0 34.242 27.758 62 62 62 34.242 0 62-27.758 62-62 0-34.241-27.758-62-62-62 34.242 0 62-27.758 62-62 0-34.241-27.758-62-62-62-34.242 0-62 27.759-62 62C124 27.76 96.242 0 62 0 27.758 0 0 27.76 0 62c0 34.242 27.759 62 62 62Z" clip-rule="evenodd" style="touch-action: none;"></path>
  <path fill="url(#pattern0)" fill-rule="evenodd" d="M62 124c-34.242 0-62 27.759-62 62 0 34.242 27.759 62 62 62 34.242 0 62-27.758 62-62 0 34.242 27.758 62 62 62 34.242 0 62-27.758 62-62 0-34.241-27.758-62-62-62 34.242 0 62-27.758 62-62 0-34.241-27.758-62-62-62-34.242 0-62 27.759-62 62C124 27.76 96.242 0 62 0 27.758 0 0 27.76 0 62c0 34.242 27.759 62 62 62Z" clip-rule="evenodd" style="mix-blend-mode: multiply; touch-action: none;"></path>
  <defs style="touch-action: none;">
    <radialGradient id="paint0_radial_1629_34053" cx="0" cy="0" r="1" gradientTransform="rotate(-48.289 195.768 87.754) scale(235.103 157.04)" gradientUnits="userSpaceOnUse" style="touch-action: none;">
      <stop stop-color="#FFD9B0" style="touch-action: none;"></stop>
      <stop offset=".807" stop-color="#FD9F3B" style="touch-action: none;"></stop>
      <stop offset="1" stop-color="#FF8709" style="touch-action: none;"></stop>
    </radialGradient>
    <pattern id="pattern0" width=".403" height=".403" patternContentUnits="objectBoundingBox" style="touch-action: none;">
      <use xlink:href="#svg-noise" transform="scale(.0008)" style="touch-action: none;"></use>
    </pattern>
  </defs>
</svg>