<?xml version="1.0" standalone="no"?><!DOCTYPE svg PUBLIC "-//W3C//DTD SVG 1.1//EN" "http://www.w3.org/Graphics/SVG/1.1/DTD/svg11.dtd"><svg class="icon" width="200px" height="199.80px" viewBox="0 0 1025 1024" version="1.1" xmlns="http://www.w3.org/2000/svg"><path d="M1024.942212 0l-292.466349 109.674881 65.512462 65.512462L315.199498 658.049287h-132.341023a36.558294 36.558294 0 0 0-25.883272 10.675021l-146.233175 146.233175A36.558294 36.558294 0 0 0 36.552184 877.399049h111.429679l1.242982 110.11358a36.558294 36.558294 0 0 0 62.587799 25.29834l144.478376-146.233175A36.558294 36.558294 0 0 0 366.892926 840.840755V709.742714l482.861943-482.788827L915.267331 292.46635 1024.942212 0zM197.993609 731.165874H293.776338v94.685981l-72.385421 73.26282-0.731166-58.712619A36.558294 36.558294 0 0 0 184.101457 804.282461h-59.224436l73.116588-73.116587z" fill="#1296db" /></svg>