<?xml version="1.0" standalone="no"?><!DOCTYPE svg PUBLIC "-//W3C//DTD SVG 1.1//EN" "http://www.w3.org/Graphics/SVG/1.1/DTD/svg11.dtd"><svg class="icon" width="200px" height="200.00px" viewBox="0 0 1024 1024" version="1.1" xmlns="http://www.w3.org/2000/svg"><path d="M892.8 642.4H131.2c-8.8 0-16-7.2-16-16V171.2c0-32.8 26.4-59.2 59.2-59.2h675.2c32.8 0 59.2 26.4 59.2 59.2v455.2c0 8.8-7.2 16-16 16z m-745.6-32h729.6V171.2c0-15.2-12-27.2-27.2-27.2H174.4c-15.2 0-27.2 12-27.2 27.2v439.2z" fill="#ffffff" /><path d="M821.6 563.2H202.4c-4.8 0-8-3.2-8-8V199.2c0-4.8 3.2-8 8-8h619.2c4.8 0 8 3.2 8 8v356c0 4.8-4 8-8 8z m-611.2-16h603.2V207.2H210.4v340zM1004 912H20c-5.6 0-10.4-2.4-13.6-7.2-3.2-4.8-3.2-10.4-1.6-15.2l111.2-269.6c2.4-5.6 8-9.6 14.4-9.6h761.6c6.4 0 12 4 14.4 9.6l111.2 269.6c2.4 4.8 1.6 10.4-1.6 15.2-1.6 4.8-6.4 7.2-12 7.2z m-960-32h936l-97.6-237.6H141.6L44 880z" fill="#ffffff" /><path d="M216.8 691.2H184c-4.8 0-8-3.2-8-8s3.2-8 8-8h33.6c4.8 0 8 3.2 8 8-0.8 4.8-4 8-8.8 8zM320.8 691.2h-33.6c-4.8 0-8-3.2-8-8s3.2-8 8-8h33.6c4.8 0 8 3.2 8 8s-3.2 8-8 8zM424.8 691.2h-33.6c-4.8 0-8-3.2-8-8s3.2-8 8-8h33.6c4.8 0 8 3.2 8 8s-3.2 8-8 8zM528.8 691.2h-33.6c-4.8 0-8-3.2-8-8s3.2-8 8-8h33.6c4.8 0 8 3.2 8 8s-4 8-8 8zM632.8 691.2h-33.6c-4.8 0-8-3.2-8-8s3.2-8 8-8h33.6c4.8 0 8 3.2 8 8s-4 8-8 8zM736.8 691.2h-33.6c-4.8 0-8-3.2-8-8s3.2-8 8-8h33.6c4.8 0 8 3.2 8 8s-4 8-8 8zM840 691.2h-33.6c-4.8 0-8-3.2-8-8s3.2-8 8-8h33.6c4.8 0 8 3.2 8 8s-3.2 8-8 8zM164.8 764.8h-33.6c-4.8 0-8-3.2-8-8s3.2-8 8-8h33.6c4.8 0 8 3.2 8 8 0 4-4 8-8 8zM285.6 764.8h-33.6c-4.8 0-8-3.2-8-8s3.2-8 8-8h33.6c4.8 0 8 3.2 8 8 0 4-3.2 8-8 8zM407.2 764.8h-33.6c-4.8 0-8-3.2-8-8s3.2-8 8-8h33.6c4.8 0 8 3.2 8 8 0 4-3.2 8-8 8zM528.8 764.8h-33.6c-4.8 0-8-3.2-8-8s3.2-8 8-8h33.6c4.8 0 8 3.2 8 8 0 4-4 8-8 8zM650.4 764.8h-33.6c-4.8 0-8-3.2-8-8s3.2-8 8-8h33.6c4.8 0 8 3.2 8 8 0 4-4 8-8 8zM771.2 764.8h-33.6c-4.8 0-8-3.2-8-8s3.2-8 8-8h33.6c4.8 0 8 3.2 8 8 0 4-3.2 8-8 8zM892.8 764.8h-33.6c-4.8 0-8-3.2-8-8s3.2-8 8-8h33.6c4.8 0 8 3.2 8 8 0 4-3.2 8-8 8zM131.2 837.6h-33.6c-4.8 0-8-3.2-8-8s3.2-8 8-8h33.6c4.8 0 8 3.2 8 8 0 4-4 8-8 8zM528.8 837.6H230.4c-4.8 0-8-3.2-8-8s3.2-8 8-8h298.4c4.8 0 8 3.2 8 8 0 4-4 8-8 8zM661.6 837.6h-33.6c-4.8 0-8-3.2-8-8s3.2-8 8-8h33.6c4.8 0 8 3.2 8 8 0 4-4 8-8 8zM793.6 837.6H760c-4.8 0-8-3.2-8-8s3.2-8 8-8h33.6c4.8 0 8 3.2 8 8 0 4-3.2 8-8 8zM926.4 837.6h-33.6c-4.8 0-8-3.2-8-8s3.2-8 8-8h33.6c4.8 0 8 3.2 8 8 0 4-4 8-8 8zM535.2 500.8h-46.4c-4.8 0-8-3.2-8-8v-28c-3.2-0.8-6.4-2.4-8.8-4l-20 20c-3.2 3.2-8 3.2-11.2 0l-32.8-32c-1.6-1.6-2.4-3.2-2.4-5.6 0-2.4 0.8-4 2.4-5.6l20-20c-1.6-2.4-2.4-5.6-3.2-8.8h-28.8c-4.8 0-8-3.2-8-8v-46.4c0-4.8 3.2-8 8-8h29.6c0.8-2.4 2.4-4.8 3.2-8L408 317.6c-1.6-1.6-2.4-3.2-2.4-5.6 0-2.4 0.8-4 2.4-5.6l32.8-32.8c3.2-3.2 8-3.2 11.2 0l21.6 21.6c2.4-0.8 4.8-2.4 7.2-3.2v-30.4c0-4.8 3.2-8 8-8h46.4c4.8 0 8 3.2 8 8v30.4c2.4 0.8 4.8 1.6 7.2 3.2l21.6-21.6c3.2-3.2 8-3.2 11.2 0l32.8 32.8c1.6 1.6 2.4 3.2 2.4 5.6 0 2.4-0.8 4-2.4 5.6l-20.8 20.8c1.6 2.4 2.4 4.8 3.2 8h29.6c4.8 0 8 3.2 8 8V400c0 4.8-3.2 8-8 8h-28.8c-0.8 3.2-2.4 5.6-3.2 8.8l20 20c1.6 1.6 2.4 3.2 2.4 5.6 0 2.4-0.8 4-2.4 5.6l-32.8 32.8c-3.2 3.2-8 3.2-11.2 0L552 461.6c-3.2 1.6-6.4 2.4-8.8 4v28c0 4-4 7.2-8 7.2z m-38.4-16h30.4v-25.6c0-3.2 2.4-6.4 5.6-8 5.6-1.6 11.2-4 16.8-7.2 3.2-1.6 7.2-1.6 9.6 1.6l18.4 18.4 21.6-21.6-19.2-18.4c-2.4-2.4-3.2-6.4-1.6-9.6 2.4-4.8 4.8-10.4 6.4-16.8 0.8-3.2 4-5.6 8-5.6h26.4v-30.4H592c-3.2 0-6.4-2.4-8-5.6-1.6-5.6-4-10.4-6.4-15.2-1.6-3.2-1.6-7.2 1.6-9.6l20-20-21.6-21.6-20 20c-2.4 2.4-6.4 3.2-9.6 1.6-4.8-2.4-9.6-4.8-15.2-6.4-3.2-0.8-5.6-4-5.6-8v-28.8h-30.4v28.8c0 3.2-2.4 6.4-5.6 8-5.6 1.6-10.4 3.2-15.2 6.4-3.2 1.6-7.2 0.8-9.6-1.6l-20-20-21.6 22.4 20 20c2.4 2.4 3.2 6.4 1.6 9.6-3.2 4.8-4.8 10.4-6.4 15.2-0.8 3.2-4 5.6-8 5.6h-27.2V392h26.4c4 0 7.2 2.4 8 5.6 1.6 5.6 4 11.2 6.4 16.8 1.6 3.2 0.8 7.2-1.6 9.6l-18.4 18.4 21.6 21.6 18.4-18.4c2.4-2.4 6.4-3.2 9.6-1.6 5.6 3.2 11.2 5.6 16.8 7.2 3.2 0.8 5.6 4 5.6 8v25.6z m15.2-51.2c-30.4 0-55.2-24.8-55.2-55.2 0-30.4 24.8-55.2 55.2-55.2 30.4 0 55.2 24.8 55.2 55.2 0 30.4-24.8 55.2-55.2 55.2z m0-94.4c-21.6 0-39.2 17.6-39.2 39.2s17.6 39.2 39.2 39.2 39.2-17.6 39.2-39.2-17.6-39.2-39.2-39.2z" fill="#ffffff" /></svg>